<svg width="51" height="50" viewBox="0 0 51 50" fill="none" xmlns="http://www.w3.org/2000/svg">
<g clip-path="url(#clip0_1294_1232)">
<path d="M25 14L16 28L19.5 27L24 32L29 25.5L32.5 30L36.5 31H37.5L26.5 15L25 14Z" fill="#00D3A6" stroke="black"/>
<path d="M39.2419 31.85L39.2412 31.8485L26.5 12.7791V7.99587C27.6591 7.84414 28.8333 8.13001 29.793 8.79764C30.9922 9.9952 34.4648 10.0878 35.5 10.0878C35.6312 10.088 35.7611 10.0623 35.8824 10.0123C36.0037 9.96227 36.1139 9.88882 36.2068 9.79615C36.2996 9.70348 36.3733 9.59342 36.4236 9.47226C36.4739 9.35109 36.4999 9.22119 36.5 9.09V3.10313C36.4996 2.83821 36.3941 2.58426 36.2066 2.39714C36.0191 2.21002 35.7649 2.10505 35.5 2.10532C33.5888 2.10432 31.583 1.77402 31.207 1.39984C29.3163 -0.486632 25.7353 0.056118 25.332 0.123348C25.1029 0.170073 24.8962 0.292585 24.7453 0.471132C24.5943 0.649678 24.5079 0.873855 24.5 1.10752V12.7791L0.667956 48.4487C0.567639 48.5991 0.510067 48.7739 0.501393 48.9545C0.49272 49.135 0.53327 49.3146 0.618712 49.4739C0.704153 49.6332 0.831274 49.7663 0.98649 49.859C1.14171 49.9516 1.31918 50.0004 1.49996 50H49.5C49.6807 50.0004 49.8582 49.9516 50.0134 49.859C50.1686 49.7663 50.2958 49.6332 50.3812 49.4739C50.4666 49.3146 50.5072 49.135 50.4985 48.9545C50.4898 48.7739 50.4323 48.5991 50.332 48.4487L39.2419 31.85ZM3.36812 48.0044L15.3908 30.0103L19.2832 28.2451L23.793 32.745C23.9021 32.8531 24.0345 32.9348 24.1801 32.9839C24.3256 33.033 24.4805 33.0483 24.6328 33.0285C24.7851 33.0083 24.9307 32.9532 25.0582 32.8675C25.1858 32.7818 25.2918 32.6679 25.3681 32.5345L28.6387 26.8244L31.7187 30.6676C31.8271 30.8022 31.9684 30.9065 32.1289 30.9706L37.7494 33.2134L47.6318 48.0044H3.36812ZM34.5 8.06292C33.3656 8.08624 32.2404 7.85517 31.207 7.38668C30.0189 6.39278 28.4952 5.8917 26.9491 5.98644C26.7919 5.98644 26.6415 5.99033 26.4999 5.99618V2.00885C27.6592 1.85579 28.8338 2.14184 29.7929 2.8108C30.7255 3.74137 33.0332 4.00544 34.4999 4.0756L34.5 8.06292ZM35.791 30.2826L33.1161 29.2146L29.2811 24.4312C29.1791 24.3041 29.0475 24.2038 28.8978 24.1391C28.7482 24.0744 28.585 24.0472 28.4225 24.0599C28.2599 24.0726 28.1029 24.1247 27.9651 24.2118C27.8273 24.299 27.7129 24.4184 27.6317 24.5598L24.2811 30.4102L20.207 26.345C20.0628 26.2013 19.8783 26.1048 19.6781 26.0686C19.4778 26.0324 19.2712 26.0581 19.0859 26.1423L17.4931 26.8643L25.5 14.88L35.791 30.2826Z" fill="#013A51"/>
</g>
<defs>
<clipPath id="clip0_1294_1232">
<rect width="50" height="50" fill="white" transform="translate(0.5)"/>
</clipPath>
</defs>
</svg>
