<svg width="31" height="44" viewBox="0 0 31 44" fill="none" xmlns="http://www.w3.org/2000/svg">
<path d="M15.5 18C17.7091 18 19.5 16.2091 19.5 14C19.5 11.7909 17.7091 10 15.5 10C13.2909 10 11.5 11.7909 11.5 14C11.5 16.2091 13.2909 18 15.5 18Z" fill="#00D3A6"/>
<path d="M15.4459 0C23.3692 0 29.8824 6.40409 29.8824 14.3277C29.8824 20.4061 20.2218 35.9277 16.6401 42.4401C16.2058 43.4171 14.7949 43.4171 14.2522 42.4401C10.6702 35.9276 1.11865 20.2971 1.11865 14.3277C1.11865 6.4044 7.52275 0 15.4464 0H15.4459ZM15.4459 2.17088C8.71638 2.17088 3.28892 7.59803 3.28892 14.3278C3.28892 19.538 12.2984 34.2993 15.4459 40.1614C18.7022 34.1916 27.7116 19.6468 27.7116 14.3278C27.7116 7.59834 22.176 2.17088 15.4459 2.17088Z" fill="#013A51"/>
<path d="M15.446 8.79199C18.5938 8.79199 20.9816 11.2885 20.9816 14.3276C20.9816 17.4754 18.5938 19.8632 15.446 19.8632C12.4067 19.8632 9.9104 17.4754 9.9104 14.3276C9.9104 11.2883 12.407 8.79199 15.446 8.79199ZM15.446 10.9628C13.6009 10.9628 12.0813 12.4825 12.0813 14.3276C12.0813 16.2815 13.6009 17.6923 15.446 17.6923C17.3999 17.6923 18.8108 16.2812 18.8108 14.3276C18.8108 12.4825 17.3996 10.9628 15.446 10.9628Z" fill="#013A51"/>
</svg>
