<svg width="85" height="26" viewBox="0 0 85 26" fill="none" xmlns="http://www.w3.org/2000/svg">
<g clip-path="url(#clip0_1292_1205)">
<path d="M17.7638 4.61292L25.0552 18.871H10.1919L17.7638 4.61292Z" fill="#00D3A6"/>
<path d="M7.2914 14.2581L0 4.19802e-07L14.8633 0L7.2914 14.2581Z" fill="#6CFFE6"/>
<path fill-rule="evenodd" clip-rule="evenodd" d="M46.3515 14.3419C46.3515 20.8419 50.9379 25.329 57.6052 25.329C60.3222 25.329 62.7747 24.5765 64.6959 23.1676L62.3687 18.0845C60.9991 19.2746 59.4173 19.9194 57.6901 19.9194C54.4202 19.9194 52.127 17.571 52.127 14.3419C52.127 11.071 54.4202 8.76452 57.6901 8.76452C59.5587 8.76452 61.1724 9.47743 62.5738 10.8613L65.7588 6.41614C63.7204 4.40323 60.9176 3.35486 57.6901 3.35486C51.0229 3.35486 46.3515 7.84194 46.3515 14.3419ZM32.6967 11.3226L29.6418 3.85808H23.3567L29.6418 18.1582L32.6967 11.3226ZM37.1584 24.8258H32.7471L32.151 23.4558L35.0335 16.8545L35.035 16.8581L35.1953 16.4748L40.5695 3.85808H46.7134L37.1584 24.8258ZM67.3097 10.4419C67.3097 14.929 71.0468 16.3548 74.3592 17.0677C78.0113 17.8645 79.073 18.1161 79.073 19.2065C79.073 20.3807 77.8414 20.8 76.2702 20.8C73.3225 20.8 70.5928 19.7583 69.1251 18.373L66.9538 23.0108C68.875 24.7686 71.9279 25.7484 75.6756 25.7484C81.536 25.7484 84.8484 23.5258 84.8484 18.9129C84.8484 14.7194 82.0881 13.2516 78.0538 12.329L77.8291 12.2784C74.1078 11.4399 73.1276 11.2191 73.1276 10.2323C73.1276 9.30968 74.0619 8.76452 75.803 8.76452C77.9688 8.76452 80.3045 9.51936 81.5785 10.9032L84.721 6.87743C82.81 4.90646 80.0497 3.7742 76.2702 3.7742C70.707 3.7742 67.3097 6.16452 67.3097 10.4419Z" fill="#013A51"/>
</g>
<defs>
<clipPath id="clip0_1292_1205">
<rect width="84.9333" height="26" fill="white"/>
</clipPath>
</defs>
</svg>
